<?xml version="1.0" encoding="UTF-8" standalone="no"?>
<!DOCTYPE svg PUBLIC "-//W3C//DTD SVG 1.1//EN" "http://www.w3.org/Graphics/SVG/1.1/DTD/svg11.dtd">
<svg width="100%" height="100%" viewBox="0 0 300 300" version="1.1" xmlns="http://www.w3.org/2000/svg" xmlns:xlink="http://www.w3.org/1999/xlink" xml:space="preserve" xmlns:serif="http://www.serif.com/" style="fill-rule:evenodd;clip-rule:evenodd;stroke-linejoin:round;stroke-miterlimit:2;">
    <g transform="matrix(0.92,0,0,1,-1.13687e-15,0)">
        <g transform="matrix(6.94132e-17,1.1336,-1.2,7.34788e-17,120,-60.081)">
            <rect x="53" y="50" width="247" height="50"/>
        </g>
        <g transform="matrix(0.506073,0,0,1.2,-26.8219,180)">
            <rect x="53" y="50" width="247" height="50"/>
        </g>
        <g transform="matrix(0.506073,0,0,1.2,-26.8219,-60)">
            <rect x="53" y="50" width="247" height="50"/>
        </g>
    </g>
    <g transform="matrix(-0.92,1.12668e-16,-1.22465e-16,-1,300,300)">
        <g transform="matrix(6.94132e-17,1.1336,-1.2,7.34788e-17,120,-60.081)">
            <rect x="53" y="50" width="247" height="50"/>
        </g>
        <g transform="matrix(0.506073,0,0,1.2,-26.8219,180)">
            <rect x="53" y="50" width="247" height="50"/>
        </g>
        <g transform="matrix(0.506073,0,0,1.2,-26.8219,-60)">
            <rect x="53" y="50" width="247" height="50"/>
        </g>
    </g>
</svg>
