<svg xmlns="http://www.w3.org/2000/svg" x="0px" y="0px"
width="30" height="30"
viewBox="0 0 172 172"
style=" fill:#000000;"><g fill="none" fill-rule="nonzero" stroke="none" stroke-width="1" stroke-linecap="butt" stroke-linejoin="miter" stroke-miterlimit="10" stroke-dasharray="" stroke-dashoffset="0" font-family="none" font-weight="none" font-size="none" text-anchor="none" style="mix-blend-mode: normal"><path d="M0,172v-172h172v172z" fill="none"></path><g fill="#000000"><path d="M34.4,22.93333c-2.06765,-0.02924 -3.99087,1.05709 -5.03322,2.843c-1.04236,1.78592 -1.04236,3.99474 0,5.78066c1.04236,1.78592 2.96558,2.87225 5.03322,2.843h103.2c2.06765,0.02924 3.99087,-1.05709 5.03322,-2.843c1.04236,-1.78592 1.04236,-3.99474 0,-5.78066c-1.04236,-1.78592 -2.96558,-2.87225 -5.03322,-2.843zM26.13594,45.86667l52.88776,48.82292c3.91013,3.612 10.04247,3.612 13.95261,0l52.88776,-48.82292zM17.2,53.2237v76.26901l39.66302,-39.65183zM154.8,53.2237l-29.84245,27.55807c2.2704,-0.30387 4.55845,-0.51511 6.90911,-0.51511c8.25027,0 16.01893,1.98526 22.93333,5.43099zM131.86667,91.73333c-22.16507,0 -40.13333,17.96827 -40.13333,40.13333c0,22.16507 17.96827,40.13333 40.13333,40.13333c22.16507,0 40.13333,-17.96827 40.13333,-40.13333c0,-22.16507 -17.96827,-40.13333 -40.13333,-40.13333zM65.29505,97.61224l-39.98776,39.98776h55.29531c-0.21213,-1.88627 -0.33594,-3.79547 -0.33594,-5.73333c0,-8.2904 2.00138,-16.10224 5.47578,-23.04531c-5.22307,-0.05733 -10.43064,-1.94987 -14.5013,-5.71094zM131.86667,108.93333l22.93333,22.93333l-22.93333,22.93333v-17.2h-17.2c-3.1648,0 -5.73333,-2.5628 -5.73333,-5.73333c0,-3.17053 2.56853,-5.73333 5.73333,-5.73333h17.2z"></path></g></g></svg>