<svg xmlns="http://www.w3.org/2000/svg" x="0px" y="0px"
width="30" height="30"
viewBox="0 0 172 172"
style=" fill:#000000;"><g fill="none" fill-rule="nonzero" stroke="none" stroke-width="1" stroke-linecap="butt" stroke-linejoin="miter" stroke-miterlimit="10" stroke-dasharray="" stroke-dashoffset="0" font-family="none" font-weight="none" font-size="none" text-anchor="none" style="mix-blend-mode: normal"><path d="M0,172v-172h172v172z" fill="none"></path><g fill="#000000"><path d="M137.6,22.93333h-103.2c-6.33533,0 -11.46667,5.13133 -11.46667,11.46667v103.2c0,6.33533 5.13133,11.46667 11.46667,11.46667h57.33333v-51.6h-17.2v-17.2h17.2v-9.2364c0,-17.48667 8.51973,-25.1636 23.05373,-25.1636c6.96027,0 10.64107,0.516 12.384,0.75107v16.44893h-9.91293c-6.16907,0 -8.3248,3.25653 -8.3248,9.84987v7.35013h18.08293l-2.45387,17.2h-15.62907v51.6h28.66667c6.33533,0 11.46667,-5.13133 11.46667,-11.46667v-103.2c0,-6.33533 -5.13707,-11.46667 -11.46667,-11.46667z"></path></g></g></svg>