<svg xmlns="http://www.w3.org/2000/svg" x="0px" y="0px"
width="30" height="30"
viewBox="0 0 172 172"
style=" fill:#000000;"><g fill="none" fill-rule="nonzero" stroke="none" stroke-width="1" stroke-linecap="butt" stroke-linejoin="miter" stroke-miterlimit="10" stroke-dasharray="" stroke-dashoffset="0" font-family="none" font-weight="none" font-size="none" text-anchor="none" style="mix-blend-mode: normal"><path d="M0,172v-172h172v172z" fill="none"></path><g fill="#000000"><path d="M103.2,17.2c-6.33533,0 -11.46667,5.13133 -11.46667,11.46667v22.93333c0,6.33533 5.13133,11.46667 11.46667,11.46667v11.46667l17.2,-11.46667h22.93333c6.33533,0 11.46667,-5.13133 11.46667,-11.46667v-22.93333c0,-6.33533 -5.13133,-11.46667 -11.46667,-11.46667zM44.36615,28.68906c-0.71908,-0.05957 -1.45116,0 -2.18359,0.17917c-2.84373,0.69373 -6.53286,2.37844 -10.40286,6.24844c-12.11453,12.11453 -18.54196,32.53721 27.00937,78.09427c45.55133,45.55707 65.97401,39.12964 78.09427,27.00937c3.88147,-3.88147 5.5659,-7.57579 6.25964,-10.42526c0.7052,-2.91827 -0.55515,-5.92182 -3.14661,-7.43542c-6.4672,-3.784 -20.42446,-11.96574 -26.8974,-15.75547c-2.12706,-1.24413 -4.73752,-1.22201 -6.85312,0.03359l-10.70521,6.38282c-2.39653,1.4276 -5.39058,1.26635 -7.59218,-0.44792c-3.8012,-2.96987 -9.9141,-7.9714 -15.24036,-13.29193c-5.32627,-5.32627 -10.3278,-11.43916 -13.29193,-15.24036c-1.71427,-2.19587 -1.88125,-5.19566 -0.44792,-7.59219l6.38282,-10.70521c1.26133,-2.1156 1.26653,-4.74846 0.02239,-6.87552l-15.72188,-26.84141c-1.1438,-1.9436 -3.12816,-3.15826 -5.28542,-3.33698z"></path></g></g></svg>