<svg xmlns="http://www.w3.org/2000/svg" x="0px" y="0px"
width="30" height="30"
viewBox="0 0 172 172"
style=" fill:#000000;"><g fill="none" fill-rule="nonzero" stroke="none" stroke-width="1" stroke-linecap="butt" stroke-linejoin="miter" stroke-miterlimit="10" stroke-dasharray="" stroke-dashoffset="0" font-family="none" font-weight="none" font-size="none" text-anchor="none" style="mix-blend-mode: normal"><path d="M0,172v-172h172v172z" fill="none"></path><g fill="#ffffff"><path d="M81.10947,110.46413c-1.07787,1.07787 -2.53413,1.67987 -4.05347,1.67987c-1.51933,0 -2.98133,-0.602 -4.05347,-1.67987l-19.7972,-19.7972c-2.24173,-2.24173 -2.24173,-5.8652 0,-8.10693c2.24173,-2.24173 5.8652,-2.24173 8.10693,0l15.74373,15.74373l70.1416,-70.14733c-2.04107,-3.13613 -5.5728,-5.22307 -9.5976,-5.22307h-103.2c-6.33533,0 -11.46667,5.13133 -11.46667,11.46667v103.2c0,6.33533 5.13133,11.46667 11.46667,11.46667h103.2c6.33533,0 11.46667,-5.13133 11.46667,-11.46667v-95.09307z"></path></g></g></svg>