<svg xmlns="http://www.w3.org/2000/svg" x="0px" y="0px"
width="30" height="30"
viewBox="0 0 172 172"
style=" fill:#000000;"><g fill="none" fill-rule="nonzero" stroke="none" stroke-width="1" stroke-linecap="butt" stroke-linejoin="miter" stroke-miterlimit="10" stroke-dasharray="" stroke-dashoffset="0" font-family="none" font-weight="none" font-size="none" text-anchor="none" style="mix-blend-mode: normal"><path d="M0,172v-172h172v172z" fill="none"></path><g fill="#000000"><path d="M86,17.2c-37.9948,0 -68.8,30.8052 -68.8,68.8c0,12.90693 3.62542,24.94039 9.80937,35.26224l-9.19349,33.53776l34.25443,-8.99192c10.01798,5.69561 21.5829,8.99192 33.92969,8.99192c37.9948,0 68.8,-30.8052 68.8,-68.8c0,-37.9948 -30.8052,-68.8 -68.8,-68.8zM62.45078,53.90677c1.118,0 2.26672,-0.00681 3.2586,0.04479c1.22693,0.02867 2.56235,0.11852 3.84088,2.94505c1.51933,3.35973 4.82756,11.78818 5.25183,12.64245c0.42427,0.85427 0.72491,1.86064 0.13437,2.97865c-0.56187,1.14666 -0.85408,1.84066 -1.67968,2.85546c-0.85427,0.98613 -1.79033,2.21092 -2.56433,2.95625c-0.85427,0.85427 -1.73639,1.79095 -0.75026,3.49375c0.98613,1.7028 4.41091,7.28501 9.47343,11.79141c6.50733,5.8136 11.99772,7.60016 13.70626,8.45442c1.70853,0.85427 2.69798,0.72115 3.68411,-0.42552c1.0148,-1.118 4.26192,-4.95423 5.40859,-6.66276c1.118,-1.70853 2.25929,-1.41291 3.80729,-0.85104c1.57093,0.56187 9.9485,4.6887 11.65703,5.54297c1.70853,0.85427 2.82859,1.2771 3.25859,1.97083c0.44147,0.71667 0.44191,4.12836 -0.97422,8.10729c-1.41613,3.9732 -8.37013,7.81543 -11.48906,8.08489c-3.1476,0.2924 -6.08513,1.41479 -20.4586,-4.24401c-17.33759,-6.8284 -28.27151,-24.58614 -29.12578,-25.73281c-0.85427,-1.118 -6.94271,-9.23246 -6.94271,-17.60313c0,-8.39933 4.40383,-12.51282 5.94609,-14.22135c1.57093,-1.70853 3.41089,-2.1276 4.55755,-2.1276z"></path></g></g></svg>