<?xml version="1.0" encoding="UTF-8" standalone="no"?>
<!DOCTYPE svg PUBLIC "-//W3C//DTD SVG 1.1//EN" "http://www.w3.org/Graphics/SVG/1.1/DTD/svg11.dtd">
<svg width="100%" height="100%" viewBox="0 0 1280 779" version="1.1" xmlns="http://www.w3.org/2000/svg" xmlns:xlink="http://www.w3.org/1999/xlink" xml:space="preserve" xmlns:serif="http://www.serif.com/" style="fill-rule:evenodd;clip-rule:evenodd;stroke-linejoin:round;stroke-miterlimit:2;">
    <g transform="matrix(1,0,0,1,240,0)">
        <rect x="154.15" y="130.21" width="448.44" height="602.6" style="fill:url(#_Linear1);"/>
    </g>
    <g transform="matrix(1,0,0,1,240,0)">
        <rect x="159.99" y="138.39" width="434.43" height="581.58" style="fill:rgb(242,242,242);"/>
    </g>
    <g transform="matrix(1,0,0,1,240,0)">
        <rect x="193.86" y="162.91" width="149.48" height="4.67" style="fill:rgb(224,224,224);"/>
    </g>
    <g transform="matrix(1,0,0,1,240,0)">
        <rect x="193.86" y="183.93" width="149.48" height="4.67" style="fill:rgb(108,99,255);fill-opacity:0.7;"/>
    </g>
    <g transform="matrix(1,0,0,1,240,0)">
        <rect x="365.53" y="162.91" width="149.48" height="4.67" style="fill:rgb(224,224,224);"/>
    </g>
    <g transform="matrix(1,0,0,1,240,0)">
        <rect x="388.88" y="296.05" width="149.48" height="4.67" style="fill:rgb(224,224,224);"/>
    </g>
    <g transform="matrix(1,0,0,1,240,0)">
        <rect x="392.39" y="308.89" width="149.48" height="4.67" style="fill:rgb(224,224,224);"/>
    </g>
    <g transform="matrix(1,0,0,1,240,0)">
        <rect x="399.4" y="321.74" width="149.48" height="4.67" style="fill:rgb(224,224,224);"/>
    </g>
    <g transform="matrix(1,0,0,1,240,0)">
        <rect x="388.88" y="502.75" width="149.48" height="4.67" style="fill:rgb(224,224,224);"/>
    </g>
    <g transform="matrix(1,0,0,1,240,0)">
        <rect x="392.39" y="515.6" width="149.48" height="4.67" style="fill:rgb(224,224,224);"/>
    </g>
    <g transform="matrix(1,0,0,1,240,0)">
        <rect x="399.4" y="528.44" width="149.48" height="4.67" style="fill:rgb(224,224,224);"/>
    </g>
    <g transform="matrix(1,0,0,1,240,0)">
        <rect x="195.03" y="248.16" width="158.82" height="161.16" style="fill:url(#_Linear2);"/>
    </g>
    <g transform="matrix(1,0,0,1,240,0)">
        <rect x="196.03" y="251.67" width="156.32" height="154.15" style="fill:rgb(245,245,245);"/>
    </g>
    <g transform="matrix(1,0,0,1,240,0)">
        <rect x="201.54" y="261.01" width="145.8" height="100.43" style="fill:url(#_Linear3);"/>
    </g>
    <g id="e1f34465-d008-41db-868b-e00503fb87b3" transform="matrix(1,0,0,1,240,0)">
        <rect x="202.54" y="262.18" width="143.79" height="96.93" style="fill:white;"/>
    </g>
    <g transform="matrix(1,0,0,1,240,0)">
        <path d="M190.35,355.61L226.56,299.55L241.74,324.07L274.44,290.21L302.47,324.07L326.99,273.86L390.05,374.29L185.68,367.28L190.35,355.61Z" style="fill:rgb(108,99,255);fill-opacity:0.4;fill-rule:nonzero;"/>
        <circle cx="218.38" cy="276.19" r="10.51" style="fill:rgb(108,99,255);fill-opacity:0.4;"/>
    </g>
    <g transform="matrix(1,0,0,1,240,0)">
        <rect x="195.03" y="454.87" width="158.82" height="161.16" style="fill:url(#_Linear4);"/>
    </g>
    <g transform="matrix(1,0,0,1,240,0)">
        <rect x="196.03" y="458.37" width="156.32" height="154.15" style="fill:rgb(245,245,245);"/>
    </g>
    <g transform="matrix(1,0,0,1,240,0)">
        <rect x="201.54" y="467.72" width="145.8" height="100.43" style="fill:url(#_Linear5);"/>
    </g>
    <g id="c95ac4f6-be4d-44a3-92c2-5c8066e2b531" transform="matrix(1,0,0,1,240,0)">
        <rect x="202.54" y="468.88" width="143.79" height="96.93" style="fill:white;"/>
    </g>
    <g transform="matrix(1,0,0,1,240,0)">
        <path d="M190.35,562.31L226.56,506.25L241.74,530.78L274.44,496.91L302.47,530.78L326.99,480.56L390.05,580.99L185.68,573.99L190.35,562.31Z" style="fill:rgb(189,189,189);fill-opacity:0.4;fill-rule:nonzero;"/>
        <circle cx="218.38" cy="482.9" r="10.51" style="fill:rgb(189,189,189);fill-opacity:0.4;"/>
    </g>
    <g transform="matrix(0.194919,-0.980819,0.980819,0.194919,115.91,1006.82)">
        <rect x="376.36" y="276.01" width="602.6" height="448.44" style="fill:url(#_Linear6);"/>
    </g>
    <g transform="matrix(0.194919,-0.980819,0.980819,0.194919,117.83,1004.12)">
        <rect x="386.18" y="280.49" width="581.58" height="434.43" style="fill:white;"/>
    </g>
    <g transform="matrix(0.980819,0.194919,-0.194919,0.980819,120.19,-191.93)">
        <rect x="542.89" y="232.65" width="308.31" height="4.67" style="fill:rgb(224,224,224);"/>
    </g>
    <g transform="matrix(0.980819,0.194919,-0.194919,0.980819,202.95,-166.84)">
        <rect x="456.83" y="665.62" width="308.31" height="4.67" style="fill:rgb(224,224,224);"/>
    </g>
    <g transform="matrix(0.980819,0.194919,-0.194919,0.980819,205.99,-158.75)">
        <rect x="452.26" y="685.13" width="238.24" height="4.67" style="fill:rgb(224,224,224);"/>
    </g>
    <g transform="matrix(0.980819,0.194919,-0.194919,0.980819,206.78,-143.21)">
        <rect x="448.46" y="696.91" width="88.75" height="4.67" style="fill:rgb(108,99,255);fill-opacity:0.7;"/>
    </g>
    <g transform="matrix(0.980819,0.194919,-0.194919,0.980819,120.84,-175.95)">
        <rect x="539.13" y="243.97" width="154.15" height="4.67" style="fill:rgb(108,99,255);fill-opacity:0.7;"/>
    </g>
    <g transform="matrix(0.980819,0.194919,-0.194919,0.980819,129.4,-186.03)">
        <rect x="532.71" y="282.38" width="277.94" height="4.67" style="fill:rgb(224,224,224);"/>
    </g>
    <g transform="matrix(0.980819,0.194919,-0.194919,0.980819,128.46,-164.8)">
        <rect x="529.49" y="288.24" width="67.73" height="4.67" style="fill:rgb(58,210,159);fill-opacity:0.7;"/>
    </g>
    <g transform="matrix(0.980819,0.194919,-0.194919,0.980819,140.33,-185.82)">
        <rect x="521.95" y="338.03" width="308.31" height="4.67" style="fill:rgb(224,224,224);"/>
    </g>
    <g transform="matrix(0.194919,-0.980819,0.980819,0.194919,88.12,1020.84)">
        <rect x="592.89" y="385.78" width="158.82" height="276.77" style="fill:url(#_Linear7);"/>
    </g>
    <g transform="matrix(0.980819,0.194919,-0.194919,0.980819,175.98,-181.59)">
        <rect x="535.78" y="445.94" width="273.27" height="155.32" style="fill:white;"/>
    </g>
    <g transform="matrix(0.980819,0.194919,-0.194919,0.980819,145.37,-184.29)">
        <rect x="516.71" y="364.38" width="308.31" height="4.67" style="fill:rgb(224,224,224);"/>
    </g>
    <g transform="matrix(0.980819,0.194919,-0.194919,0.980819,170.81,-164.51)">
        <rect x="566.14" y="449.2" width="33.87" height="113.28" style="fill:rgb(108,99,255);"/>
    </g>
    <g transform="matrix(0.980819,0.194919,-0.194919,0.980819,177.76,-174.83)">
        <rect x="622.06" y="498.05" width="33.87" height="75.91" style="fill:rgb(58,210,159);"/>
    </g>
    <g transform="matrix(0.980819,0.194919,-0.194919,0.980819,184.5,-185.22)">
        <rect x="678.21" y="544.59" width="33.87" height="40.87" style="fill:rgb(245,95,68);"/>
    </g>
    <g transform="matrix(0.980819,0.194919,-0.194919,0.980819,184.01,-197.8)">
        <rect x="741.87" y="514.79" width="33.87" height="82.92" style="fill:rgb(253,216,53);"/>
    </g>
    <g transform="matrix(1,0,0,1,61,-60.54)">
        <path d="M880.45,410.55C851.071,379.994 810.464,362.704 768.075,362.704C726.499,362.704 686.604,379.337 657.34,408.87C598.34,468.35 597.34,565.2 655.05,625.94C707.18,680.809 792.11,690.182 854.95,648L967.64,765.21C970.526,768.21 975.369,768.305 978.37,765.42L1006.45,738.42C1009.45,735.534 1009.55,730.691 1006.66,727.69L894,610.49C938.407,549.632 932.662,464.86 880.45,410.55ZM845.35,599C824.587,618.961 796.877,630.12 768.076,630.12C706.909,630.12 656.576,579.787 656.576,518.62C656.576,457.453 706.909,407.12 768.076,407.12C798.393,407.12 827.437,419.486 848.45,441.34C868.414,462.103 879.576,489.816 879.576,518.62C879.576,548.941 867.208,577.987 845.35,599Z" style="fill:url(#_Linear8);fill-rule:nonzero;"/>
    </g>
    <g transform="matrix(1,0,0,1,61,-60.54)">
        <path d="M685.49,487.6C672.95,487.6 672.93,507.09 685.49,507.09C698.05,507.09 698.05,487.6 685.49,487.6Z" style="fill:url(#_Linear9);fill-rule:nonzero;"/>
    </g>
    <g transform="matrix(1,0,0,1,61,-60.54)">
        <path d="M772.9,425.17C739.15,424.41 708.44,441.34 692.11,466.9C686.78,475.24 701.91,482.61 707.21,474.31C720.73,453.15 746.42,439.71 774.21,440.41C803.33,441.14 829.83,457.8 843.86,480.92C849.18,489.69 863.13,481.72 857.86,473C840.8,445 807.76,426 772.9,425.17Z" style="fill:url(#_Linear10);fill-rule:nonzero;"/>
    </g>
    <g transform="matrix(1,0,0,1,61,-60.54)">
        <path d="M892.68,404.63C863.301,374.074 822.694,356.784 780.305,356.784C738.729,356.784 698.834,373.417 669.57,402.95C610.57,462.43 609.57,559.28 667.28,620.02C719.412,674.886 804.343,684.254 867.18,642.07L979.86,759.29C982.746,762.29 987.589,762.385 990.59,759.5L1018.67,732.5C1021.67,729.614 1021.76,724.771 1018.88,721.77L906.19,604.56C950.602,543.713 944.874,458.949 892.68,404.63ZM857.58,593C836.817,612.961 809.107,624.12 780.306,624.12C719.139,624.12 668.806,573.787 668.806,512.62C668.806,451.453 719.139,401.12 780.306,401.12C810.623,401.12 839.667,413.486 860.68,435.34C880.644,456.103 891.806,483.816 891.806,512.62C891.806,542.941 879.438,571.987 857.58,593Z" style="fill:rgb(108,99,255);fill-rule:nonzero;"/>
    </g>
    <g transform="matrix(1,0,0,1,61,-60.54)">
        <path d="M697.72,481.67C685.18,481.67 685.16,501.16 697.72,501.16C710.28,501.16 710.28,481.67 697.72,481.67Z" style="fill:rgb(108,99,255);fill-rule:nonzero;"/>
    </g>
    <g transform="matrix(1,0,0,1,61,-60.54)">
        <path d="M785.13,419.25C751.38,418.49 720.67,435.42 704.34,460.98C699.01,469.32 714.14,476.69 719.44,468.39C732.96,447.23 758.65,433.79 786.44,434.49C815.56,435.22 842.06,451.88 856.09,475C861.41,483.77 875.36,475.8 870.09,467.08C853,439 820,420 785.13,419.25Z" style="fill:rgb(108,99,255);fill-rule:nonzero;"/>
    </g>
    <g transform="matrix(1,0,0,1,240,0)">
        <rect x="121.45" y="663.91" width="3.5" height="19.85" style="fill:rgb(71,230,177);"/>
    </g>
    <g transform="matrix(-3.82857e-16,1,-1,-3.82857e-16,1097.58,371.63)">
        <rect x="300.45" y="724.45" width="3.5" height="19.85" style="fill:rgb(71,230,177);"/>
    </g>
    <g transform="matrix(1,0,0,1,61,-60.54)">
        <path d="M750.87,68.49C748.879,67.624 747.844,65.376 748.48,63.3C748.529,63.144 748.559,62.983 748.57,62.82C748.573,62.771 748.575,62.722 748.575,62.673C748.575,61.494 747.604,60.523 746.425,60.523C745.746,60.523 745.105,60.845 744.7,61.39C744.604,61.52 744.523,61.661 744.46,61.81C743.594,63.801 741.346,64.836 739.27,64.2C739.114,64.151 738.953,64.121 738.79,64.11C738.738,64.106 738.687,64.104 738.635,64.104C737.456,64.104 736.485,65.075 736.485,66.254C736.485,66.946 736.819,67.596 737.38,68C737.51,68.096 737.651,68.177 737.8,68.24C739.791,69.106 740.826,71.354 740.19,73.43C740.141,73.586 740.111,73.747 740.1,73.91C740.095,73.967 740.093,74.024 740.093,74.081C740.093,75.26 741.064,76.231 742.243,76.231C742.941,76.231 743.598,75.89 744,75.32C744.096,75.19 744.177,75.049 744.24,74.9C745.106,72.909 747.354,71.874 749.43,72.51C749.586,72.559 749.747,72.589 749.91,72.6C749.959,72.603 750.008,72.605 750.057,72.605C751.236,72.605 752.207,71.634 752.207,70.455C752.207,69.776 751.885,69.135 751.34,68.73C751.194,68.63 751.036,68.55 750.87,68.49Z" style="fill:rgb(77,138,240);fill-rule:nonzero;"/>
    </g>
    <g transform="matrix(1,0,0,1,61,-60.54)">
        <path d="M316.44,215.64C314.449,214.774 313.414,212.526 314.05,210.45C314.099,210.294 314.129,210.133 314.14,209.97C314.143,209.921 314.145,209.872 314.145,209.823C314.145,208.644 313.174,207.673 311.995,207.673C311.316,207.673 310.675,207.995 310.27,208.54C310.174,208.67 310.093,208.811 310.03,208.96C309.164,210.951 306.916,211.986 304.84,211.35C304.684,211.301 304.523,211.271 304.36,211.26C304.311,211.257 304.262,211.255 304.213,211.255C303.034,211.255 302.063,212.226 302.063,213.405C302.063,214.084 302.385,214.725 302.93,215.13C303.06,215.226 303.201,215.307 303.35,215.37C305.341,216.236 306.376,218.484 305.74,220.56C305.691,220.716 305.661,220.877 305.65,221.04C305.647,221.089 305.645,221.138 305.645,221.187C305.645,222.366 306.616,223.337 307.795,223.337C308.474,223.337 309.115,223.015 309.52,222.47C309.616,222.34 309.697,222.199 309.76,222.05C310.626,220.059 312.874,219.024 314.95,219.66C315.106,219.709 315.267,219.739 315.43,219.75C315.479,219.753 315.528,219.755 315.577,219.755C316.756,219.755 317.727,218.784 317.727,217.605C317.727,216.926 317.405,216.285 316.86,215.88C316.73,215.784 316.589,215.703 316.44,215.64Z" style="fill:rgb(253,216,53);fill-rule:nonzero;"/>
    </g>
    <g transform="matrix(1,0,0,1,61,-60.54)">
        <path d="M934.22,822.9C932.229,822.034 931.194,819.786 931.83,817.71C931.879,817.554 931.909,817.393 931.92,817.23C931.923,817.181 931.925,817.132 931.925,817.083C931.925,815.904 930.954,814.933 929.775,814.933C929.096,814.933 928.455,815.255 928.05,815.8C927.954,815.93 927.873,816.071 927.81,816.22C926.944,818.211 924.696,819.246 922.62,818.61C922.464,818.561 922.303,818.531 922.14,818.52C922.091,818.517 922.042,818.515 921.993,818.515C920.814,818.515 919.843,819.486 919.843,820.665C919.843,821.344 920.165,821.985 920.71,822.39C920.84,822.486 920.981,822.567 921.13,822.63C923.121,823.496 924.156,825.744 923.52,827.82C923.471,827.976 923.441,828.137 923.43,828.3C923.427,828.349 923.425,828.398 923.425,828.447C923.425,829.626 924.396,830.597 925.575,830.597C926.254,830.597 926.895,830.275 927.3,829.73C927.396,829.6 927.477,829.459 927.54,829.31C928.406,827.319 930.654,826.284 932.73,826.92C932.886,826.969 933.047,826.999 933.21,827.01C933.259,827.013 933.308,827.015 933.357,827.015C934.536,827.015 935.507,826.044 935.507,824.865C935.507,824.186 935.185,823.545 934.64,823.14C934.51,823.044 934.369,822.963 934.22,822.9Z" style="fill:rgb(253,216,53);fill-rule:nonzero;"/>
    </g>
    <g transform="matrix(1,0,0,1,240,0)">
        <circle cx="321.15" cy="75.33" r="7.01" style="fill:rgb(245,95,68);"/>
    </g>
    <g transform="matrix(1,0,0,1,240,0)">
        <circle cx="823.31" cy="162.91" r="7.01" style="fill:rgb(245,95,68);"/>
    </g>
    <g transform="matrix(1,0,0,1,240,0)">
        <circle cx="783.61" cy="371.95" r="7.01" style="fill:rgb(77,138,240);"/>
    </g>
    <g transform="matrix(1,0,0,1,240,0)">
        <circle cx="7.01" cy="28.61" r="7.01" style="fill:rgb(71,230,177);fill-opacity:0.5;"/>
    </g>
    <defs>
        <linearGradient id="_Linear1" x1="0" y1="0" x2="1" y2="0" gradientUnits="userSpaceOnUse" gradientTransform="matrix(3.68986e-14,-602.6,602.6,3.68986e-14,378.37,732.81)"><stop offset="0" style="stop-color:rgb(128,128,128);stop-opacity:0.12"/><stop offset="0.54" style="stop-color:rgb(128,128,128);stop-opacity:0.06"/><stop offset="1" style="stop-color:rgb(128,128,128);stop-opacity:0.05"/></linearGradient>
        <linearGradient id="_Linear2" x1="0" y1="0" x2="1" y2="0" gradientUnits="userSpaceOnUse" gradientTransform="matrix(9.8682e-15,-161.16,161.16,9.8682e-15,274.44,409.32)"><stop offset="0" style="stop-color:rgb(128,128,128);stop-opacity:0.12"/><stop offset="0.54" style="stop-color:rgb(128,128,128);stop-opacity:0.06"/><stop offset="1" style="stop-color:rgb(128,128,128);stop-opacity:0.05"/></linearGradient>
        <linearGradient id="_Linear3" x1="0" y1="0" x2="1" y2="0" gradientUnits="userSpaceOnUse" gradientTransform="matrix(6.14956e-15,-100.43,100.43,6.14956e-15,274.44,361.44)"><stop offset="0" style="stop-color:rgb(128,128,128);stop-opacity:0.12"/><stop offset="0.54" style="stop-color:rgb(128,128,128);stop-opacity:0.06"/><stop offset="1" style="stop-color:rgb(128,128,128);stop-opacity:0.05"/></linearGradient>
        <linearGradient id="_Linear4" x1="0" y1="0" x2="1" y2="0" gradientUnits="userSpaceOnUse" gradientTransform="matrix(9.8682e-15,-161.16,161.16,9.8682e-15,274.44,616.03)"><stop offset="0" style="stop-color:rgb(128,128,128);stop-opacity:0.12"/><stop offset="0.54" style="stop-color:rgb(128,128,128);stop-opacity:0.06"/><stop offset="1" style="stop-color:rgb(128,128,128);stop-opacity:0.05"/></linearGradient>
        <linearGradient id="_Linear5" x1="0" y1="0" x2="1" y2="0" gradientUnits="userSpaceOnUse" gradientTransform="matrix(6.14956e-15,-100.43,100.43,6.14956e-15,274.44,568.15)"><stop offset="0" style="stop-color:rgb(128,128,128);stop-opacity:0.12"/><stop offset="0.54" style="stop-color:rgb(128,128,128);stop-opacity:0.06"/><stop offset="1" style="stop-color:rgb(128,128,128);stop-opacity:0.05"/></linearGradient>
        <linearGradient id="_Linear6" x1="0" y1="0" x2="1" y2="0" gradientUnits="userSpaceOnUse" gradientTransform="matrix(602.6,2.27374e-13,-2.27374e-13,602.6,376.36,500.23)"><stop offset="0" style="stop-color:rgb(128,128,128);stop-opacity:0.12"/><stop offset="0.54" style="stop-color:rgb(128,128,128);stop-opacity:0.06"/><stop offset="1" style="stop-color:rgb(128,128,128);stop-opacity:0.05"/></linearGradient>
        <linearGradient id="_Linear7" x1="0" y1="0" x2="1" y2="0" gradientUnits="userSpaceOnUse" gradientTransform="matrix(158.82,1.13687e-13,-1.13687e-13,158.82,592.9,524.17)"><stop offset="0" style="stop-color:rgb(128,128,128);stop-opacity:0.12"/><stop offset="0.54" style="stop-color:rgb(128,128,128);stop-opacity:0.06"/><stop offset="1" style="stop-color:rgb(128,128,128);stop-opacity:0.05"/></linearGradient>
        <linearGradient id="_Linear8" x1="0" y1="0" x2="1" y2="0" gradientUnits="userSpaceOnUse" gradientTransform="matrix(2.47887e-14,-404.83,404.83,2.47887e-14,810.6,767.54)"><stop offset="0" style="stop-color:rgb(179,179,179);stop-opacity:0.25"/><stop offset="0.54" style="stop-color:rgb(179,179,179);stop-opacity:0.1"/><stop offset="1" style="stop-color:rgb(179,179,179);stop-opacity:0.05"/></linearGradient>
        <linearGradient id="_Linear9" x1="0" y1="0" x2="1" y2="0" gradientUnits="userSpaceOnUse" gradientTransform="matrix(1.19281e-15,-19.48,19.48,1.19281e-15,685.49,507.08)"><stop offset="0" style="stop-color:black;stop-opacity:0.12"/><stop offset="0.55" style="stop-color:black;stop-opacity:0.09"/><stop offset="1" style="stop-color:black;stop-opacity:0.02"/></linearGradient>
        <linearGradient id="_Linear10" x1="0" y1="0" x2="1" y2="0" gradientUnits="userSpaceOnUse" gradientTransform="matrix(3.64822e-15,-59.58,59.58,3.64822e-15,774.99,484.73)"><stop offset="0" style="stop-color:black;stop-opacity:0.12"/><stop offset="0.55" style="stop-color:black;stop-opacity:0.09"/><stop offset="1" style="stop-color:black;stop-opacity:0.02"/></linearGradient>
    </defs>
</svg>
